<svg width="30" height="30" viewBox="0 0 30 30" fill="none" xmlns="http://www.w3.org/2000/svg">
<path d="M1.25 3.125H3.65424C4.13263 3.125 4.37183 3.125 4.56628 3.21174C4.73771 3.28821 4.88415 3.41138 4.98886 3.56717C5.10763 3.74388 5.14862 3.97954 5.23058 4.45085L5.76087 7.5M5.76087 7.5L6.99173 14.5774C7.17091 15.6077 7.2605 16.1228 7.52583 16.4939C7.75945 16.8207 8.08606 17.0695 8.46311 17.208C8.89133 17.3654 9.41176 17.315 10.4526 17.2143L23.9832 15.9048C25.0046 15.806 25.5152 15.7566 25.9012 15.5259C26.2411 15.3227 26.513 15.0232 26.6825 14.6652C26.875 14.2589 26.875 13.7458 26.875 12.7197V11.2317C26.875 10.1412 26.875 9.5959 26.665 9.17455C26.4802 8.80377 26.1848 8.49953 25.8197 8.30385C25.4047 8.08148 24.8597 8.06535 23.7697 8.03308L5.76087 7.5Z" stroke="#262F56" stroke-width="1.8" stroke-linecap="round" stroke-linejoin="round"/>
<circle cx="10.625" cy="23.75" r="2.5" stroke="#262F56" stroke-width="1.8"/>
<circle cx="22.5" cy="23.75" r="2.5" stroke="#262F56" stroke-width="1.8"/>
</svg>
