<svg width="66" height="29" viewBox="0 0 66 29" fill="none" xmlns="http://www.w3.org/2000/svg">
<path d="M1.32102 23H5.53977V15.9858H12.4773V12.5511H5.53977V8.97159H13.2358V5.54545H1.32102V23ZM22.9858 17.3494C22.9858 18.875 22.0142 19.7273 20.7784 19.7273C19.5 19.7273 18.7159 18.858 18.7074 17.4347V9.90909H14.5398V18.2528C14.5483 21.2102 16.3466 23.1705 19.0398 23.1705C21 23.1705 22.4574 22.1648 23.0369 20.5625H23.1733V23H27.1449V9.90909H22.9858V17.3494ZM34.5788 23.1875C36.5561 23.1875 37.7322 22.0881 38.2607 20.8778H38.3885V23H42.5135V5.54545H38.3459V12.1506H38.2607C37.7663 10.9489 36.6243 9.73864 34.5618 9.73864C31.826 9.73864 29.3459 11.8438 29.3459 16.4631C29.3459 20.9205 31.6896 23.1875 34.5788 23.1875ZM36.0277 19.9403C34.4851 19.9403 33.6243 18.5682 33.6243 16.4545C33.6243 14.3494 34.4766 12.9943 36.0277 12.9943C37.5533 12.9943 38.4396 14.3153 38.4396 16.4545C38.4396 18.5767 37.5447 19.9403 36.0277 19.9403ZM51.2599 23.2472C55.3764 23.2472 57.8736 20.5284 57.8736 16.4972C57.8736 12.4574 55.3764 9.73864 51.2599 9.73864C47.1435 9.73864 44.6463 12.4574 44.6463 16.4972C44.6463 20.5284 47.1435 23.2472 51.2599 23.2472ZM51.2855 20.1023C49.7429 20.1023 48.8906 18.6364 48.8906 16.4716C48.8906 14.2983 49.7429 12.8239 51.2855 12.8239C52.777 12.8239 53.6293 14.2983 53.6293 16.4716C53.6293 18.6364 52.777 20.1023 51.2855 20.1023Z" fill="#2E2E2E"/>
<path d="M62.3523 23.2472C63.5199 23.2472 64.5511 22.2585 64.5682 21.0312C64.5511 19.821 63.5199 18.8409 62.3523 18.8409C61.125 18.8409 60.1193 19.821 60.1364 21.0312C60.1193 22.2585 61.125 23.2472 62.3523 23.2472Z" fill="#F54748"/>
</svg>
